<?xml version="1.0" standalone="no"?>
<!DOCTYPE svg PUBLIC "-//W3C//DTD SVG 20010904//EN"
 "http://www.w3.org/TR/2001/REC-SVG-20010904/DTD/svg10.dtd">
<svg version="1.0" xmlns="http://www.w3.org/2000/svg"
 width="300.000000pt" height="153.000000pt" viewBox="0 0 300.000000 153.000000"
 preserveAspectRatio="xMidYMid meet">
<metadata>
Created by potrace 1.10, written by Peter Selinger 2001-2011
</metadata>
<g transform="translate(0.000000,153.000000) scale(0.100000,-0.100000)"
fill="#000000" stroke="none">
<path d="M68 1513 c34 -2 90 -2 125 0 34 2 6 3 -63 3 -69 0 -97 -1 -62 -3z"/>
<path d="M308 1513 c28 -2 76 -2 105 0 28 2 5 3 -53 3 -58 0 -81 -1 -52 -3z"/>
<path d="M478 1513 c7 -3 16 -2 19 1 4 3 -2 6 -13 5 -11 0 -14 -3 -6 -6z"/>
<path d="M528 1513 c12 -2 30 -2 40 0 9 3 -1 5 -23 4 -22 0 -30 -2 -17 -4z"/>
<path d="M2558 1513 c17 -2 47 -2 65 0 17 2 3 4 -33 4 -36 0 -50 -2 -32 -4z"/>
<path d="M2693 1513 c15 -2 37 -2 50 0 12 2 0 4 -28 4 -27 0 -38 -2 -22 -4z"/>
<path d="M2843 1513 c32 -2 81 -2 110 0 29 2 3 3 -58 3 -60 0 -84 -1 -52 -3z"/>
<path d="M1258 1393 c134 -2 350 -2 480 0 130 1 21 2 -243 2 -264 0 -371 -1
-237 -2z"/>
<path d="M1030 1275 c0 -60 3 -75 15 -75 10 0 15 10 15 30 0 20 5 30 15 30 10
0 15 -10 15 -30 0 -20 5 -30 15 -30 12 0 15 15 15 75 0 60 -3 75 -15 75 -10 0
-15 -10 -15 -30 0 -20 -5 -30 -15 -30 -10 0 -15 10 -15 30 0 20 -5 30 -15 30
-12 0 -15 -15 -15 -75z"/>
<path d="M1160 1331 c-38 -71 23 -166 74 -115 19 19 22 104 4 122 -19 19 -66
15 -78 -7z m58 -53 c-4 -51 -31 -61 -36 -15 -4 37 4 57 23 57 13 0 15 -9 13
-42z"/>
<path d="M1288 1275 c3 -56 7 -75 18 -75 10 0 12 11 9 48 -6 49 2 43 25 -20 5
-16 16 -28 25 -28 12 0 15 14 15 75 0 63 -3 75 -16 75 -14 0 -16 -8 -11 -46 5
-51 -5 -48 -23 9 -7 23 -18 37 -28 37 -15 0 -17 -10 -14 -75z"/>
<path d="M1432 1338 c-7 -7 -12 -35 -12 -63 0 -55 12 -75 45 -75 33 0 45 20
45 75 0 55 -12 75 -45 75 -12 0 -26 -5 -33 -12z m48 -63 c0 -33 -4 -45 -15
-45 -11 0 -15 12 -15 45 0 33 4 45 15 45 11 0 15 -12 15 -45z"/>
<path d="M1550 1275 l0 -75 35 0 c24 0 35 5 35 15 0 8 -9 15 -20 15 -18 0 -20
7 -20 60 0 47 -3 60 -15 60 -12 0 -15 -15 -15 -75z"/>
<path d="M1640 1291 c0 -63 15 -91 49 -91 33 0 51 33 51 93 0 48 -3 57 -18 57
-15 0 -17 -9 -17 -57 0 -45 -3 -58 -15 -58 -12 0 -15 13 -15 58 0 48 -3 57
-17 57 -15 0 -18 -9 -18 -59z"/>
<path d="M1775 1275 l0 -75 38 0 c26 0 37 4 37 15 0 10 -10 15 -26 15 -27 0
-27 0 -21 60 4 51 3 60 -11 60 -14 0 -17 -12 -17 -75z"/>
<path d="M1870 1287 c0 -67 10 -87 45 -87 35 0 45 20 45 87 0 49 -3 63 -15 63
-12 0 -15 -13 -15 -60 0 -47 -3 -60 -15 -60 -12 0 -15 13 -15 60 0 47 -3 60
-15 60 -12 0 -15 -14 -15 -63z"/>
<path d="M1362 1135 c0 -22 2 -32 5 -22 2 9 8 17 13 17 5 0 11 -8 13 -17 3
-10 5 0 5 22 0 22 -2 32 -5 23 -2 -10 -8 -18 -13 -18 -5 0 -11 8 -13 18 -3 9
-5 -1 -5 -23z"/>
<path d="M1430 1169 c0 -2 -4 -18 -9 -35 -8 -29 -7 -32 15 -30 19 1 22 5 17
26 -5 22 -23 52 -23 39z"/>
<path d="M1466 1143 c4 -16 11 -32 17 -38 6 -7 8 -2 3 15 -3 14 -6 31 -6 38 0
6 -5 12 -10 12 -6 0 -8 -11 -4 -27z"/>
<path d="M1490 1161 c0 -5 5 -22 11 -38 10 -26 12 -27 19 -8 5 11 8 29 8 40 0
16 -2 15 -8 -5 -5 -16 -8 -19 -9 -8 -1 18 -21 36 -21 19z"/>
<path d="M1550 1158 c0 -7 -3 -22 -6 -33 -4 -16 0 -21 16 -21 16 0 20 5 16 21
-3 11 -6 26 -6 33 0 6 -4 12 -10 12 -5 0 -10 -6 -10 -12z"/>
<path d="M1590 1135 c0 -19 5 -35 10 -35 6 0 10 16 10 35 0 19 -4 35 -10 35
-5 0 -10 -16 -10 -35z"/>
<path d="M1620 1135 c0 -19 5 -35 10 -35 6 0 10 16 10 35 0 19 -4 35 -10 35
-5 0 -10 -16 -10 -35z"/>
<path d="M1098 1133 c46 -2 118 -2 160 0 42 1 5 3 -83 3 -88 0 -123 -2 -77 -3z"/>
<path d="M1738 1133 c46 -2 118 -2 160 0 42 1 5 3 -83 3 -88 0 -123 -2 -77 -3z"/>
<path d="M1587 903 c-4 -7 -7 -54 -5 -105 2 -91 1 -93 -22 -96 -46 -7 -49 -23
-50 -249 0 -185 2 -212 15 -207 10 4 15 0 15 -14 0 -11 -8 -23 -17 -25 -10 -3
6 -5 35 -6 28 0 52 -5 52 -10 0 -8 -208 -13 -222 -5 -4 3 0 17 8 32 7 15 14
33 14 40 0 6 5 12 11 12 5 0 7 -4 4 -10 -3 -5 3 -10 15 -10 12 0 18 5 15 10
-3 6 -2 10 4 10 13 0 25 -45 18 -64 -4 -10 -1 -13 9 -9 8 3 14 18 14 35 0 16
-4 27 -9 24 -14 -9 -21 31 -21 116 0 67 -3 80 -20 90 -17 11 -20 24 -20 95 l0
83 30 0 30 0 3 -187 c2 -167 3 -159 5 75 l2 262 30 0 c17 0 30 4 30 9 0 5 -15
5 -32 2 l-33 -7 -3 -72 -3 -72 -29 0 c-27 0 -30 3 -30 30 0 28 -2 30 -41 30
-22 0 -38 -4 -35 -8 3 -5 18 -7 35 -4 l30 4 0 -111 c1 -61 1 -114 2 -118 4
-22 -2 -33 -13 -27 -9 5 -9 2 1 -9 9 -11 10 -17 2 -17 -6 0 -11 -5 -11 -11 0
-6 7 -9 15 -5 12 4 15 -6 15 -60 0 -55 -3 -65 -15 -60 -10 4 -15 -1 -15 -16 0
-17 -3 -18 -15 -8 -8 6 -18 9 -23 6 -6 -3 -12 5 -14 19 -4 20 -1 25 16 25 15
0 17 -3 8 -9 -11 -7 -11 -9 2 -14 11 -5 16 -1 16 13 0 14 -7 20 -22 20 -21 0
-23 5 -23 50 0 46 2 50 25 51 l25 1 -25 7 c-22 5 -25 11 -25 51 -1 40 2 46 25
51 l25 7 -26 1 c-22 1 -26 5 -25 31 1 20 6 30 17 30 11 0 15 -8 14 -25 -4 -31
12 -33 18 -2 3 13 5 8 6 -15 1 -33 -2 -38 -21 -39 -13 0 -17 -3 -10 -6 6 -2 9
-9 6 -14 -13 -21 -11 -59 2 -59 9 0 14 13 15 38 1 37 1 37 9 7 6 -23 8 -12 9
43 0 39 -3 72 -8 72 -6 0 -11 19 -13 41 -3 37 -6 42 -30 45 l-28 3 0 -215 c0
-200 -1 -215 -17 -212 -25 5 -29 45 -6 51 16 4 17 5 1 6 -15 1 -18 10 -18 50
0 39 4 51 18 54 16 4 16 5 0 6 -15 1 -18 10 -18 51 0 38 4 50 15 50 8 0 15 4
15 10 0 5 -7 7 -15 4 -11 -5 -15 1 -15 25 0 23 5 31 18 32 14 0 14 2 -3 9 -17
7 -17 9 -2 9 13 1 17 10 17 37 0 28 -3 35 -15 30 -18 -7 -20 10 -2 21 12 8 17
9 38 12 5 0 7 6 3 12 -4 8 -9 7 -14 -2 -6 -8 -12 2 -19 29 -12 42 -34 58 -65
46 -9 -3 -16 -10 -16 -16 0 -5 -5 -6 -11 -3 -5 4 -19 -1 -30 -11 -11 -10 -35
-23 -52 -29 -19 -6 -33 -18 -35 -30 -3 -11 -10 -24 -18 -28 -8 -4 -14 -19 -14
-32 0 -14 -4 -25 -10 -25 -5 0 -10 -11 -10 -24 0 -14 -7 -27 -15 -29 -11 -4
-10 -4 2 -3 10 1 19 11 21 24 2 12 8 22 13 22 5 0 9 11 9 25 0 16 6 25 15 25
10 0 15 10 15 30 0 25 4 30 34 36 19 3 37 12 40 20 3 8 13 14 22 14 10 0 25 7
35 16 26 23 49 11 49 -26 0 -18 4 -29 10 -25 17 11 11 -11 -8 -28 -12 -11 -18
-28 -16 -49 3 -30 3 -31 -5 -8 -8 23 -9 22 -10 -12 -1 -20 -7 -39 -13 -42 -7
-4 -3 -4 10 -2 16 3 22 -1 22 -15 0 -16 -7 -19 -47 -18 -27 1 -60 1 -75 0
l-28 -1 0 -155 c0 -148 -1 -155 -20 -155 -19 0 -20 7 -20 149 l0 150 -32 3
c-18 2 -53 2 -78 0 l-45 -4 1 -146 0 -147 -6 135 -6 135 -2 -137 c-2 -118 -4
-138 -18 -138 -14 0 -15 17 -12 135 2 86 -1 135 -7 135 -6 0 -9 -49 -7 -135 3
-118 2 -135 -12 -135 -14 0 -16 21 -16 165 l0 165 -65 0 c-37 0 -65 4 -65 10
0 6 -25 10 -56 10 -34 0 -53 -4 -49 -10 4 -6 -12 -10 -39 -10 -39 0 -46 3 -46
20 0 11 5 20 10 20 6 0 10 -6 10 -12 0 -10 2 -10 9 0 10 17 252 16 263 -2 5
-7 8 -6 8 4 0 13 1 13 10 0 6 -9 10 -10 10 -3 0 20 -14 23 -109 25 -68 1 -91
5 -91 15 0 9 -14 12 -47 11 l-48 -1 43 -4 c61 -6 52 -23 -13 -23 -30 0 -55 5
-55 10 0 6 4 10 10 10 5 0 7 7 4 15 -4 8 -16 15 -28 15 -20 0 -21 -4 -19 -88
8 -439 7 -427 13 -162 l6 245 2 -247 c2 -240 1 -248 -18 -248 -18 0 -19 9 -20
252 0 138 -2 254 -5 256 -3 3 -5 -72 -5 -166 0 -114 -4 -172 -11 -172 -5 0 -8
-4 -5 -9 4 -5 -3 -7 -13 -4 -19 5 -20 14 -18 164 2 144 4 159 20 159 9 0 17 6
17 14 0 9 -8 12 -25 8 -24 -4 -25 -8 -25 -69 l0 -64 -35 26 c-37 29 -54 28
-95 -6 l-25 -21 38 21 c35 19 40 20 67 6 16 -8 31 -19 34 -23 3 -5 8 -54 11
-110 l5 -101 -27 -3 c-27 -3 -28 -4 -25 -60 3 -49 1 -58 -13 -58 -12 0 -15 -6
-10 -20 6 -18 0 -20 -107 -23 -62 -1 510 -3 1272 -3 762 0 1366 1 1343 3 -24
2 -43 9 -43 15 0 6 9 8 21 5 17 -5 18 -3 8 10 -8 9 -13 48 -14 104 0 54 -4 89
-10 89 -7 0 -8 -31 -3 -92 4 -50 5 -95 2 -100 -16 -25 -22 19 -23 168 -1 92
-4 171 -7 176 -3 4 -21 8 -40 8 -19 0 -34 5 -34 10 0 6 -10 14 -22 19 -13 5
-38 21 -57 35 -43 32 -122 38 -120 9 0 -11 3 -13 6 -5 9 23 72 13 118 -18 24
-16 48 -30 54 -30 6 0 11 -6 11 -14 0 -17 -33 -31 -38 -17 -5 14 -49 14 -57 1
-4 -6 -6 -91 -5 -190 0 -109 -3 -180 -9 -180 -5 0 -16 7 -24 15 -10 9 -42 15
-98 17 l-84 3 -6 50 c-7 50 -34 230 -45 295 l-6 35 84 -1 c68 -1 84 -4 86 -18
3 -13 -6 -16 -50 -18 l-53 -2 48 -3 47 -4 0 -59 c0 -37 -4 -60 -12 -63 -9 -4
-8 -6 2 -6 12 -1 14 -15 12 -80 -3 -67 -6 -79 -20 -77 -17 3 -19 17 -21 154
l-1 52 -47 -2 -48 -1 43 -4 42 -4 0 -99 c0 -94 -1 -99 -22 -103 -13 -2 0 -5
29 -6 40 -1 53 -5 56 -18 3 -10 5 66 6 169 0 103 5 189 9 192 23 14 29 -20 30
-188 0 -98 4 -181 7 -184 3 -3 5 83 5 191 l0 197 -120 0 c-111 0 -120 -1 -120
-19 0 -20 46 -325 56 -373 5 -27 7 -27 87 -31 l82 -3 -87 -2 c-73 -2 -89 1
-98 16 -8 12 -10 13 -7 2 3 -10 -2 -16 -15 -17 -15 -2 -17 1 -9 11 6 7 8 16 4
20 -4 3 2 13 13 22 16 13 17 15 2 10 -15 -5 -18 1 -17 37 l2 42 7 -35 7 -35 2
32 c0 17 -3 35 -9 38 -5 3 -11 39 -12 78 l-1 72 -7 -65 c-5 -46 -7 -15 -8 108
-1 97 -7 182 -12 193 -22 39 -127 17 -168 -36 -17 -21 -19 -45 -21 -217 -1
-106 -4 -194 -5 -196 -2 -1 -11 0 -20 4 -14 5 -16 31 -16 220 0 182 2 216 15
220 8 4 23 0 32 -7 14 -12 16 -12 11 1 -2 8 -17 16 -31 18 -24 3 -27 8 -27 40
l0 37 -21 -32 c-23 -37 -34 -41 -43 -17 -4 9 -9 14 -13 10 -3 -3 1 -14 10 -24
15 -16 15 -20 -7 -46 l-22 -29 7 59 c3 32 2 63 -2 68 -5 6 -9 -2 -9 -20 0 -28
-2 -30 -34 -26 -18 2 -36 0 -39 -5 -3 -5 10 -7 29 -5 l34 4 1 -248 c1 -137 0
-260 -1 -273 -1 -14 2 -21 9 -17 6 4 11 13 11 19 0 7 11 25 23 41 l24 29 21
-35 c38 -60 32 -68 -49 -68 l-71 0 4 265 3 265 -102 0 -103 0 0 -100 c0 -82 3
-100 15 -100 12 0 15 -18 15 -105 0 -93 -2 -105 -17 -105 -10 0 -28 -3 -40 -6
l-23 -6 0 196 c0 124 -4 196 -10 196 -5 0 -9 3 -9 8 1 4 1 28 0 53 -1 38 -5
48 -21 52 -11 3 -20 1 -20 -4 0 -5 7 -9 15 -9 11 0 15 -11 15 -40 0 -33 -3
-40 -20 -40 -18 0 -20 8 -22 108 -2 59 -7 102 -11 95z m463 -190 c0 -34 -1
-36 -16 -21 -13 12 -14 20 -5 37 16 30 21 26 21 -16z m235 -14 c4 -11 5 -95 3
-185 -2 -142 -5 -168 -20 -181 -12 -11 -17 -29 -16 -57 l1 -41 4 39 c3 21 10
45 17 52 11 11 13 5 8 -32 -3 -29 -1 -44 7 -44 6 0 12 20 13 48 l1 47 6 -55
c6 -57 -4 -110 -21 -110 -5 0 -6 5 -3 10 3 6 1 10 -4 10 -6 0 -11 -4 -11 -10
0 -5 -21 -10 -46 -10 -38 0 -45 3 -40 16 3 9 6 117 6 240 0 184 2 224 14 224
7 0 16 -9 19 -20 3 -12 0 -20 -7 -20 -17 0 -14 -59 4 -71 13 -9 12 -10 -2 -5
-13 4 -18 0 -18 -14 0 -12 7 -20 18 -21 16 -1 16 -2 0 -6 -12 -3 -18 -14 -18
-34 0 -21 5 -29 18 -30 12 0 13 -2 3 -6 -11 -5 -11 -7 0 -14 10 -6 11 -9 2 -9
-7 0 -13 -9 -13 -20 0 -11 6 -20 13 -21 6 0 3 -4 -8 -9 -20 -9 -20 -9 0 -10
11 -1 14 -4 8 -7 -8 -3 -13 -23 -12 -51 1 -39 2 -43 9 -22 l8 25 1 -27 c1 -14
-5 -29 -11 -31 -10 -4 -10 -8 1 -15 11 -8 10 -11 -5 -14 -17 -3 -17 -4 4 -10
l22 -6 0 232 0 233 -25 23 c-35 33 -32 40 19 40 36 0 46 -4 51 -21z m-254 -21
c7 -13 14 -50 16 -83 3 -54 2 -58 -11 -41 -12 15 -13 23 -4 40 10 18 9 19 -4
8 -14 -11 -19 -9 -37 14 l-21 26 21 29 c25 35 25 35 40 7z m-391 -210 c0 -140
-4 -219 -10 -223 -8 -5 -7 -11 1 -21 10 -12 4 -14 -35 -14 -40 0 -46 3 -46 21
0 20 1 21 24 5 l25 -16 -2 228 -1 227 -3 -218 c-3 -213 -4 -217 -23 -207 -19
10 -20 22 -20 210 0 173 -2 199 -15 194 -8 -4 -15 -2 -15 3 0 13 56 30 92 29
l28 -1 0 -217z m200 201 c0 -15 -4 -19 -16 -15 -9 3 -27 6 -40 6 -15 0 -24 6
-24 15 0 11 11 15 40 15 34 0 40 -3 40 -21z m40 7 c0 -8 -7 -16 -15 -20 -10
-4 -15 1 -15 14 0 11 7 20 15 20 8 0 15 -6 15 -14z m30 -6 c-6 -11 -13 -20
-15 -20 -3 0 -5 9 -5 20 0 11 7 20 15 20 13 0 14 -4 5 -20z m240 10 c0 -5 -5
-10 -11 -10 -5 0 -7 5 -4 10 3 6 8 10 11 10 2 0 4 -4 4 -10z m30 0 c0 -5 -4
-10 -10 -10 -5 0 -10 5 -10 10 0 6 5 10 10 10 6 0 10 -4 10 -10z m25 0 c3 -5
1 -10 -4 -10 -6 0 -11 5 -11 10 0 6 2 10 4 10 3 0 8 -4 11 -10z m-839 -18 c-3
-3 -1 -11 5 -19 9 -10 8 -13 -2 -13 -11 0 -11 -2 1 -10 12 -8 12 -10 -5 -10
-16 0 -20 7 -21 34 -1 25 3 33 13 29 8 -3 11 -8 9 -11z m-63 -12 c3 -11 1 -20
-4 -20 -5 0 -9 9 -9 20 0 11 2 20 4 20 2 0 6 -9 9 -20z m354 -282 c-1 -57 -3
-11 -3 102 0 113 2 159 3 103 2 -57 2 -149 0 -205z m523 272 c0 -16 -7 -20
-30 -20 -23 0 -30 4 -30 20 0 16 7 20 30 20 23 0 30 -4 30 -20z m-390 0 c0 -5
-6 -10 -14 -10 -8 0 -18 5 -21 10 -3 6 3 10 14 10 12 0 21 -4 21 -10z m-250
-190 c0 -106 -4 -190 -9 -190 -5 0 -9 84 -9 190 0 105 4 190 9 190 5 0 9 -85
9 -190z m300 165 c0 -15 -6 -25 -14 -25 -7 0 -16 11 -18 25 -4 19 -1 25 13 25
14 0 19 -7 19 -25z m40 0 c0 -16 -6 -25 -15 -25 -9 0 -15 9 -15 25 0 16 6 25
15 25 9 0 15 -9 15 -25z m30 0 c0 -14 -4 -25 -10 -25 -5 0 -10 11 -10 25 0 14
5 25 10 25 6 0 10 -11 10 -25z m78 -67 c-11 -16 -20 -28 -21 -28 -1 0 -2 25
-2 55 l0 54 21 -27 c22 -27 22 -27 2 -54z m-251 50 c-3 -8 -6 -5 -6 6 -1 11 2
17 5 13 3 -3 4 -12 1 -19z m53 -8 c0 -20 -5 -30 -15 -30 -8 0 -15 6 -16 13 0
6 -2 20 -4 30 -2 11 3 17 16 17 14 0 19 -7 19 -30z m367 -199 c0 -197 -1 -209
-19 -208 -21 1 -23 8 -5 26 10 11 9 12 -3 6 -13 -8 -13 -7 -1 9 10 11 11 20 4
24 -14 10 -14 102 0 102 7 0 5 5 -3 10 -10 6 -11 10 -2 10 6 0 12 5 12 11 0 5
-4 7 -10 4 -5 -3 -10 3 -10 14 0 12 6 21 13 21 9 0 9 2 0 8 -7 4 -11 37 -10
87 0 72 9 101 27 90 4 -3 7 -99 7 -214z m-1467 135 c0 -39 -4 -55 -15 -60 -16
-6 -22 -86 -7 -86 4 0 6 18 4 40 -3 25 0 40 7 40 7 0 11 -38 11 -115 l0 -115
35 0 c30 0 35 -3 35 -23 0 -17 -6 -23 -25 -25 -19 -1 -25 3 -25 18 0 11 -5 20
-11 20 -6 0 -8 -9 -4 -20 5 -15 2 -20 -10 -20 -12 0 -16 6 -12 20 3 11 1 20
-4 20 -5 0 -9 -9 -9 -20 0 -17 -7 -20 -40 -20 -34 0 -40 3 -41 23 l-2 22 -4
-22 c-3 -15 -12 -23 -24 -23 -21 0 -27 19 -6 21 9 0 9 2 -1 6 -24 10 0 23 44
23 l44 0 0 126 0 125 -45 -7 -45 -6 0 39 c0 39 0 40 40 41 34 2 40 -1 40 -19
0 -17 -5 -19 -32 -16 -18 2 -24 2 -13 -1 18 -5 18 -6 -5 -13 -19 -5 -15 -7 17
-5 l43 1 0 43 c0 40 1 42 30 42 30 0 30 -1 30 -54z m1150 -11 c0 -49 -3 -65
-14 -65 -11 0 -15 17 -18 65 -3 57 -1 65 15 65 14 0 17 -10 17 -65z m40 35 c0
-17 -5 -30 -12 -30 -9 0 -9 -3 0 -12 17 -17 15 -58 -3 -58 -12 0 -15 14 -15
65 0 51 3 65 15 65 10 0 15 -10 15 -30z m30 0 c0 -16 -4 -30 -10 -30 -5 0 -10
14 -10 30 0 17 5 30 10 30 6 0 10 -13 10 -30z m125 -20 c14 -27 14 -32 -2 -56
l-17 -26 -22 28 -23 28 20 28 c11 15 22 28 24 28 3 0 11 -13 20 -30z m-1197
-4 c3 -13 -4 -15 -45 -10 -26 3 -54 8 -61 10 -7 2 -10 -1 -7 -6 3 -6 -1 -10
-9 -10 -9 0 -16 8 -16 18 0 15 9 17 68 16 53 -1 68 -5 70 -18z m401 17 c-1 -5
0 -69 2 -143 l3 -135 6 145 6 145 2 -147 c1 -94 -2 -148 -8 -148 -5 0 -10 -19
-11 -42 0 -33 -2 -38 -9 -23 -8 19 -9 19 -9 1 -1 -11 -4 -17 -7 -13 -3 3 -5
84 -4 181 0 97 -3 176 -7 176 -4 0 -7 -71 -5 -158 2 -88 -1 -169 -7 -182 -7
-18 -10 29 -10 163 l-1 187 30 0 c17 0 29 -3 29 -7z m551 -3 c0 -5 -6 -10 -12
-11 -10 0 -10 -2 0 -6 14 -6 16 -33 2 -33 -5 0 -12 11 -16 24 -3 14 -13 27
-22 29 -10 3 -2 5 16 6 17 0 32 -3 32 -9z m980 -64 c0 -70 -1 -75 -22 -78 -22
-3 -23 -6 -17 -63 l6 -60 1 58 c2 43 6 57 17 57 12 0 15 -13 15 -61 0 -39 -4
-58 -10 -54 -11 7 -8 -24 6 -59 6 -15 4 -17 -6 -11 -8 5 -11 4 -6 -3 4 -6 13
-9 21 -5 8 3 15 0 15 -6 0 -14 -73 -15 -118 -2 -20 6 -30 6 -27 0 4 -5 -6 -9
-20 -9 -20 0 -26 4 -23 17 2 10 13 19 26 19 36 2 38 4 17 21 -16 12 -16 14 -3
10 10 -3 20 -2 23 3 3 5 23 7 45 6 22 -2 37 1 34 5 -3 5 -14 9 -25 9 -18 0
-19 8 -19 140 l0 140 35 0 35 0 0 -74z m-1758 -76 c-2 -79 -7 -140 -13 -140
-15 0 -12 267 4 273 6 3 12 6 12 6 0 1 -1 -62 -3 -139z m40 -8 l2 -137 6 140
c3 77 7 136 10 130 4 -5 6 -68 5 -140 -1 -128 -1 -130 -23 -130 -23 0 -23 1
-23 133 0 72 1 137 1 143 0 5 5 7 10 4 6 -4 11 -65 12 -143z m118 -2 c0 -93
-4 -150 -10 -150 -6 0 -10 57 -10 150 0 93 4 150 10 150 6 0 10 -57 10 -150z
m1520 13 c0 -73 -3 -133 -7 -134 -5 0 -16 -2 -27 -4 -10 -2 -28 0 -40 5 -19 8
-19 9 7 9 19 1 27 6 28 19 0 9 1 52 3 95 l3 77 -31 2 -31 1 31 4 c27 3 30 7
26 28 -3 17 -12 25 -31 28 -14 2 -5 4 22 3 l47 0 0 -133z m-1710 -13 c0 -121
-2 -139 -15 -134 -12 5 -13 10 -5 20 8 8 10 53 6 133 -4 78 -2 121 4 121 6 0
10 -53 10 -140z m-220 100 c0 -22 -3 -23 -37 -14 -27 7 -30 21 -5 27 34 9 42
7 42 -13z m43 0 c3 -11 1 -20 -4 -20 -5 0 -9 8 -10 18 0 14 -2 14 -9 -3 -8
-19 -9 -19 -9 3 -1 28 25 30 32 2z m1107 -16 c0 -13 -4 -24 -10 -24 -5 0 -10
14 -10 31 0 17 4 28 10 24 6 -3 10 -17 10 -31z m-1070 16 c0 -5 -7 -10 -15
-10 -8 0 -15 5 -15 10 0 6 7 10 15 10 8 0 15 -4 15 -10z m1148 -82 c-11 -16
-20 -28 -21 -28 -1 0 -2 25 -2 55 l0 54 21 -27 c22 -27 22 -27 2 -54z m-198
52 c0 -11 -4 -20 -9 -20 -5 0 -11 9 -14 20 -3 13 0 20 9 20 8 0 14 -9 14 -20z
m-969 -1 c-15 -6 -21 -15 -17 -24 4 -10 -1 -15 -14 -15 -29 0 -26 37 3 43 39
8 53 6 28 -4z m1229 -26 c-1 -35 -2 -37 -15 -19 -10 13 -11 24 -4 37 14 28 19
23 19 -18z m-1452 21 c36 -10 25 -29 -18 -32 -34 -2 -40 0 -40 18 0 21 16 25
58 14z m162 -14 c0 -22 -3 -23 -37 -14 -27 7 -30 21 -5 27 34 9 42 7 42 -13z
m80 0 c0 -5 -7 -10 -15 -10 -8 0 -15 5 -15 10 0 6 7 10 15 10 8 0 15 -4 15
-10z m1793 3 c-7 -2 -19 -2 -25 0 -7 3 -2 5 12 5 14 0 19 -2 13 -5z m-793 -33
c0 -20 -5 -30 -15 -30 -10 0 -15 10 -15 30 0 20 5 30 15 30 10 0 15 -10 15
-30z m40 0 c0 -20 -5 -30 -15 -30 -10 0 -15 10 -15 30 0 20 5 30 15 30 10 0
15 -10 15 -30z m30 0 c0 -16 -4 -30 -10 -30 -5 0 -10 14 -10 30 0 17 5 30 10
30 6 0 10 -13 10 -30z m-120 0 c0 -11 -4 -20 -9 -20 -5 0 -11 9 -14 20 -3 13
0 20 9 20 8 0 14 -9 14 -20z m-950 -37 l0 -48 -38 -1 c-20 -1 -27 1 -14 3 12
2 22 8 22 13 0 4 -9 6 -20 3 -12 -3 -20 0 -20 7 0 9 10 11 30 7 22 -5 30 -3
30 8 0 8 -4 15 -9 15 -6 0 -9 9 -8 20 1 11 7 20 14 20 9 0 13 -15 13 -47z
m1210 -6 c0 -4 -8 -19 -17 -34 l-17 -25 -22 28 -23 28 21 29 21 29 18 -23 c10
-13 19 -28 19 -32z m596 40 c4 -4 -5 -7 -19 -7 -15 0 -27 4 -27 8 0 10 36 9
46 -1z m-2026 -9 c0 -11 -36 -28 -59 -28 -14 0 -21 6 -21 20 0 18 6 20 40 18
22 -1 40 -5 40 -10z m140 -9 c0 -21 -3 -22 -37 -13 -33 9 -28 31 7 32 23 0 30
-4 30 -19z m43 1 c4 -15 0 -20 -14 -20 -12 0 -19 7 -19 20 0 11 6 20 14 20 7
0 16 -9 19 -20z m654 -77 c-2 -21 -4 -6 -4 32 0 39 2 55 4 38 2 -18 2 -50 0
-70z m333 47 c0 -13 -6 -20 -17 -19 -12 0 -13 2 -5 6 10 4 10 8 1 19 -9 11 -8
14 5 14 9 0 16 -8 16 -20z m50 -25 c0 -24 -5 -35 -15 -35 -10 0 -15 11 -15 35
0 24 5 35 15 35 10 0 15 -11 15 -35z m40 0 c0 -24 -5 -35 -15 -35 -10 0 -15
11 -15 35 0 24 5 35 15 35 10 0 15 -11 15 -35z m30 0 c0 -19 -4 -35 -10 -35
-5 0 -10 16 -10 35 0 19 5 35 10 35 6 0 10 -16 10 -35z m-1306 19 c27 -10 -1
-34 -38 -33 l-31 1 30 8 30 8 -27 1 c-16 0 -28 6 -28 11 0 11 39 13 64 4z
m156 -4 c0 -5 -15 -10 -32 -9 -28 0 -30 2 -13 9 28 12 45 12 45 0z m1880 -5
c0 -6 -9 -11 -20 -12 -11 -1 -20 4 -20 12 0 8 9 13 20 12 11 -1 20 -6 20 -12z
m-652 -23 c20 -27 20 -27 -2 -54 l-21 -27 0 54 c0 30 1 55 2 55 1 0 10 -12 21
-28z m-1583 -73 c1 -68 1 -69 -26 -69 -15 0 -29 7 -33 15 -3 8 -1 15 4 15 6 0
10 -4 10 -10 0 -5 8 -10 18 -10 14 0 15 2 2 10 -13 9 -13 10 0 10 13 0 13 1 0
10 -13 9 -13 11 0 20 13 9 13 10 0 10 -13 0 -13 1 0 10 13 9 13 11 0 20 -11 7
-11 10 -2 10 7 0 10 5 7 10 -8 12 4 34 14 25 3 -4 6 -38 6 -76z m352 75 c-3
-3 -12 -4 -19 -1 -8 3 -5 6 6 6 11 1 17 -2 13 -5z m1033 -14 c0 -21 -15 -27
-25 -10 -7 12 2 30 16 30 5 0 9 -9 9 -20z m260 -17 c-1 -35 -2 -37 -15 -19
-10 13 -11 24 -4 37 14 28 19 23 19 -18z m-1604 5 c-3 -13 -5 -44 -5 -70 -1
-27 -5 -48 -9 -48 -7 0 -9 105 -2 120 1 3 2 8 1 13 0 4 3 7 9 7 5 0 8 -10 6
-22z m21 -60 c-2 -18 -4 -6 -4 27 0 33 2 48 4 33 2 -15 2 -42 0 -60z m153 62
c0 -5 -18 -10 -40 -10 -22 0 -40 5 -40 10 0 6 18 10 40 10 22 0 40 -4 40 -10z
m140 0 c0 -5 -13 -10 -30 -10 -16 0 -30 5 -30 10 0 6 14 10 30 10 17 0 30 -4
30 -10z m40 0 c0 -5 -7 -10 -15 -10 -8 0 -15 5 -15 10 0 6 7 10 15 10 8 0 15
-4 15 -10z m40 0 c0 -5 -7 -10 -15 -10 -8 0 -15 5 -15 10 0 6 7 10 15 10 8 0
15 -4 15 -10z m910 -47 c0 -20 -3 -33 -7 -29 -5 4 -8 13 -8 18 0 6 -7 13 -15
15 -13 4 -13 3 0 -6 9 -7 10 -11 3 -11 -6 0 -14 4 -18 10 -3 5 -12 7 -20 3
-21 -7 -19 14 3 26 9 6 27 11 40 11 19 0 22 -5 22 -37z m90 12 c0 -18 -5 -25
-20 -25 -11 0 -20 5 -20 11 0 6 7 8 18 4 14 -5 15 -4 5 6 -17 17 -16 29 2 29
9 0 15 -9 15 -25z m40 0 c0 -16 -6 -25 -15 -25 -9 0 -15 9 -15 25 0 16 6 25
15 25 9 0 15 -9 15 -25z m30 0 c0 -14 -4 -25 -10 -25 -5 0 -10 11 -10 25 0 14
5 25 10 25 6 0 10 -11 10 -25z m-1312 8 c-10 -2 -28 -2 -40 0 -13 2 -5 4 17 4
22 1 32 -1 23 -4z m159 1 c-3 -3 -12 -4 -19 -1 -8 3 -5 6 6 6 11 1 17 -2 13
-5z m83 -8 c0 -8 -9 -17 -20 -21 -26 -8 -120 -2 -120 8 0 5 15 8 33 7 17 -1
48 -1 67 0 l35 3 -35 7 -35 7 38 2 c26 1 37 -3 37 -13z m950 -6 c0 -11 -6 -20
-13 -20 -7 0 -13 9 -13 20 0 11 6 20 13 20 7 0 13 -9 13 -20z m-1175 -10 c-3
-5 -22 -10 -41 -10 -19 0 -34 5 -34 10 0 6 18 10 41 10 24 0 38 -4 34 -10z
m683 -2 c-3 -7 3 -22 13 -32 11 -11 19 -14 19 -8 0 6 -4 14 -10 17 -15 10 -12
25 4 19 8 -3 17 -18 19 -32 4 -25 4 -25 6 4 1 33 27 55 29 26 3 -48 -7 -61
-47 -60 -36 0 -39 3 -44 32 -5 30 -1 46 10 46 3 0 3 -6 1 -12z m791 -14 c1 27
12 14 17 -22 4 -25 2 -31 -14 -29 -14 1 -19 10 -19 41 -1 35 0 37 7 16 6 -20
8 -21 9 -6z m-832 -36 c-2 -13 -4 -5 -4 17 -1 22 1 32 4 23 2 -10 2 -28 0 -40z
m-272 25 c2 -7 10 -13 17 -13 9 0 8 3 -2 10 -8 5 -13 10 -10 11 3 0 14 2 25 4
11 2 23 -1 27 -8 11 -17 10 -47 -2 -47 -5 0 -10 8 -11 18 0 14 -2 14 -9 -3 -5
-11 -9 -14 -9 -7 -1 10 -5 10 -21 0 -17 -11 -22 -10 -30 2 -6 9 -5 17 3 22 7
4 -8 8 -33 9 -33 0 -40 3 -25 8 29 12 74 8 80 -6z m87 -20 l-6 -28 -6 25 c-7
27 -3 43 9 35 5 -2 6 -17 3 -32z m60 1 c-7 -36 -42 -33 -42 5 0 24 3 28 23 24
19 -4 23 -10 19 -29z m558 25 c0 -5 5 -7 11 -4 6 4 17 -3 26 -15 l15 -21 15
21 c18 26 36 22 38 -8 2 -20 -3 -22 -49 -21 -28 0 -45 3 -38 6 17 7 15 23 -3
23 -8 0 -15 -7 -15 -15 0 -10 -11 -15 -35 -15 -19 0 -35 4 -35 10 0 5 13 8 30
6 27 -3 29 -1 24 20 -4 15 -2 24 5 24 6 0 11 -5 11 -11z m-909 -42 c-8 -8 -11
-3 -11 19 1 25 2 27 11 11 8 -14 8 -22 0 -30z m49 33 c-10 -6 -11 -10 -2 -10
6 0 12 -6 12 -14 0 -9 -7 -12 -20 -9 -11 3 -20 8 -20 12 0 11 23 31 35 31 5 0
3 -5 -5 -10z m47 4 c-3 -3 -12 -4 -19 -1 -8 3 -5 6 6 6 11 1 17 -2 13 -5z
m284 -37 c-8 -8 -11 -3 -11 19 1 25 2 27 11 11 8 -14 8 -22 0 -30z m679 18 c0
-16 -6 -25 -15 -25 -9 0 -15 9 -15 25 0 16 6 25 15 25 9 0 15 -9 15 -25z m40
0 c0 -16 -6 -25 -15 -25 -9 0 -15 9 -15 25 0 16 6 25 15 25 9 0 15 -9 15 -25z
m30 6 c0 -11 -4 -23 -10 -26 -6 -4 -10 5 -10 19 0 14 5 26 10 26 6 0 10 -9 10
-19z m-1000 -16 c0 -10 -10 -15 -28 -15 -19 0 -29 5 -29 15 0 10 10 15 29 15
18 0 28 -5 28 -15z m30 0 c0 -8 -4 -15 -10 -15 -5 0 -10 7 -10 15 0 8 5 15 10
15 6 0 10 -7 10 -15z m-470 -5 c0 -5 -4 -10 -10 -10 -5 0 -10 5 -10 10 0 6 5
10 10 10 6 0 10 -4 10 -10z"/>
<path d="M2256 425 c4 -8 11 -15 16 -15 6 0 5 6 -2 15 -7 8 -14 15 -16 15 -2
0 -1 -7 2 -15z"/>
<path d="M2267 233 c-4 -3 -7 -11 -7 -16 0 -6 3 -7 7 -4 3 4 13 1 21 -6 13
-10 15 -9 9 5 -3 9 -1 19 6 22 7 2 3 5 -9 5 -11 1 -24 -2 -27 -6z"/>
<path d="M1798 673 c7 -3 16 -2 19 1 4 3 -2 6 -13 5 -11 0 -14 -3 -6 -6z"/>
<path d="M648 543 c6 -2 18 -2 25 0 6 3 1 5 -13 5 -14 0 -19 -2 -12 -5z"/>
<path d="M644 385 c0 -82 2 -115 3 -72 2 43 2 110 0 150 -1 40 -3 5 -3 -78z"/>
<path d="M668 305 c-1 -36 0 -65 5 -65 4 0 7 29 7 65 0 36 -2 65 -4 65 -2 0
-6 -29 -8 -65z"/>
<path d="M610 207 c0 -7 9 -13 20 -13 11 0 20 6 20 13 0 7 -9 13 -20 13 -11 0
-20 -6 -20 -13z"/>
<path d="M2670 238 c0 -10 6 -18 14 -18 8 0 17 -6 20 -12 2 -7 4 -3 2 9 -3 26
-16 44 -16 22 0 -11 -2 -11 -10 1 -8 13 -10 12 -10 -2z"/>
<path d="M2724 215 c-1 -14 2 -22 7 -19 11 6 12 44 2 44 -5 0 -9 -11 -9 -25z"/>
<path d="M565 440 c-19 -8 -19 -9 3 -9 12 -1 22 4 22 9 0 6 -1 10 -2 9 -2 0
-12 -4 -23 -9z"/>
<path d="M565 390 c-19 -8 -19 -9 3 -9 12 -1 22 4 22 9 0 6 -1 10 -2 9 -2 0
-12 -4 -23 -9z"/>
<path d="M735 390 c-3 -5 -1 -10 4 -10 6 0 11 5 11 10 0 6 -2 10 -4 10 -3 0
-8 -4 -11 -10z"/>
<path d="M634 877 c1 -22 5 -25 36 -24 19 1 38 5 41 10 3 4 30 8 60 10 41 1
53 5 44 13 -12 13 -121 -1 -142 -18 -7 -6 -16 -2 -26 12 -15 22 -15 22 -13 -3z"/>
<path d="M820 896 c0 -2 7 -6 15 -10 8 -3 15 -1 15 4 0 6 -7 10 -15 10 -8 0
-15 -2 -15 -4z"/>
<path d="M719 843 c-8 -9 -8 -13 0 -13 6 0 11 5 11 11 0 5 4 8 9 4 5 -3 12 -2
15 3 9 14 -23 10 -35 -5z"/>
<path d="M1695 783 c-11 -3 -24 -9 -29 -14 -5 -5 6 -4 25 1 19 6 51 8 71 4 30
-4 38 -10 41 -32 4 -25 4 -25 6 4 1 29 -2 32 -36 38 -41 6 -48 6 -78 -1z"/>
<path d="M2328 730 c-13 -14 -17 -35 -16 -68 1 -46 1 -46 5 -7 6 68 20 85 69
85 l43 0 4 -55 4 -55 -1 57 -1 58 -45 3 c-35 2 -49 -2 -62 -18z"/>
<path d="M831 668 c2 -31 2 -31 6 -5 4 25 8 28 36 25 32 -3 32 -3 38 -73 l6
-70 -1 75 -1 75 -42 3 c-43 3 -43 3 -42 -30z"/>
<path d="M1150 684 c0 -6 -11 -16 -25 -22 -22 -10 -25 -17 -23 -59 l2 -48 3
46 c3 36 9 49 26 56 36 16 65 -3 70 -46 l4 -36 1 37 c2 29 -3 40 -20 49 -13 7
-26 17 -30 23 -6 8 -8 8 -8 0z"/>
<path d="M1300 575 c0 -8 5 -15 10 -15 6 0 10 7 10 15 0 8 -4 15 -10 15 -5 0
-10 -7 -10 -15z"/>
<path d="M437 548 c-3 -18 -2 -36 2 -40 3 -4 7 11 9 33 3 47 -4 52 -11 7z"/>
<path d="M2358 533 c12 -2 30 -2 40 0 9 3 -1 5 -23 4 -22 0 -30 -2 -17 -4z"/>
<path d="M2433 527 c0 -7 9 -14 19 -14 16 -2 17 1 8 13 -15 18 -27 18 -27 1z"/>
<path d="M1685 519 c-11 -16 -1 -19 13 -3 7 8 8 14 3 14 -5 0 -13 -5 -16 -11z"/>
<path d="M1308 470 c-3 -16 -1 -30 4 -30 4 0 8 14 8 30 0 17 -2 30 -4 30 -2 0
-6 -13 -8 -30z"/>
<path d="M2363 493 c9 -2 25 -2 35 0 9 3 1 5 -18 5 -19 0 -27 -2 -17 -5z"/>
<path d="M2430 489 c0 -5 5 -7 10 -4 6 3 10 8 10 11 0 2 -4 4 -10 4 -5 0 -10
-5 -10 -11z"/>
<path d="M259 475 c-4 -49 -3 -78 3 -88 4 -7 8 14 8 46 0 31 -2 57 -5 57 -3 0
-6 -7 -6 -15z"/>
<path d="M441 464 c0 -11 3 -14 6 -6 3 7 2 16 -1 19 -3 4 -6 -2 -5 -13z"/>
<path d="M375 450 c-3 -5 -19 -10 -36 -10 l-29 0 0 -104 c0 -91 -2 -105 -17
-108 -10 -2 -26 1 -35 6 -13 8 -21 7 -30 -3 -11 -12 -10 -13 6 -7 17 6 17 5 5
-10 -13 -16 -12 -16 9 -5 15 8 22 8 22 1 0 -6 4 -9 9 -6 5 4 12 0 14 -6 3 -7
6 -4 6 7 1 17 3 17 11 5 7 -10 10 23 10 103 l0 117 29 0 c16 0 31 6 35 15 6
17 0 20 -9 5z"/>
<path d="M442 420 c0 -14 2 -19 5 -12 2 6 2 18 0 25 -3 6 -5 1 -5 -13z"/>
<path d="M345 387 c-13 -10 -15 -26 -12 -77 l3 -65 2 68 c2 66 6 72 40 68 16
-2 15 6 -2 12 -8 3 -21 0 -31 -6z"/>
<path d="M1370 390 c-13 -9 -13 -10 0 -10 12 0 12 -2 1 -9 -10 -6 -10 -10 -1
-16 9 -6 9 -10 -1 -16 -11 -7 -10 -9 4 -9 13 0 17 8 17 35 0 39 1 38 -20 25z"/>
<path d="M1307 375 c-4 -8 -2 -17 3 -20 6 -4 10 3 10 14 0 25 -6 27 -13 6z"/>
<path d="M261 354 c0 -11 3 -14 6 -6 3 7 2 16 -1 19 -3 4 -6 -2 -5 -13z"/>
<path d="M1402 330 c0 -14 2 -19 5 -12 2 6 2 18 0 25 -3 6 -5 1 -5 -13z"/>
<path d="M225 331 c-3 -7 0 -8 9 -5 11 4 15 -4 18 -33 2 -29 7 -38 23 -40 15
-1 15 0 3 3 -11 3 -18 18 -20 41 -3 36 -20 54 -33 34z"/>
<path d="M2388 293 c7 -3 16 -2 19 1 4 3 -2 6 -13 5 -11 0 -14 -3 -6 -6z"/>
<path d="M1420 220 c0 -13 7 -20 20 -20 13 0 20 7 20 20 0 13 -7 20 -20 20
-13 0 -20 -7 -20 -20z"/>
<path d="M2023 228 c-15 -20 -25 -38 -20 -38 3 0 12 11 21 25 17 26 16 35 -1
13z"/>
</g>
</svg>
